<svg width="25.000000" height="25.000000" viewBox="0 0 25 25" fill="none" xmlns="http://www.w3.org/2000/svg" xmlns:xlink="http://www.w3.org/1999/xlink">
	<desc>
			Created with Pixso.
	</desc>
	<defs/>
	<path id="Vector" d="M17.91 14.92L17.91 1.83C17.91 0.28 16.65 -0.98 15.1 -0.98L2.01 -0.98C1.26 -0.98 0.55 -0.69 0.02 -0.16C-0.51 0.37 -0.8 1.08 -0.8 1.83L-0.8 14.92C-0.8 16.47 0.46 17.73 2.01 17.73L15.1 17.73C16.65 17.73 17.91 16.47 17.91 14.92ZM1.07 14.92L1.07 1.83C1.07 1.31 1.49 0.89 2.01 0.89L15.1 0.89C15.61 0.89 16.03 1.31 16.03 1.83L16.03 14.92C16.03 15.43 15.61 15.85 15.1 15.85L2.01 15.85C1.49 15.85 1.07 15.43 1.07 14.92ZM21.98 6.26L19.7 6.26C19.45 6.26 19.21 6.36 19.04 6.54C18.86 6.71 18.76 6.95 18.76 7.2C18.76 7.45 18.86 7.69 19.04 7.86C19.21 8.04 19.45 8.14 19.7 8.14L21.98 8.14C22.5 8.14 22.92 8.56 22.92 9.08L22.92 22.16C22.92 22.68 22.5 23.1 21.98 23.1L8.9 23.1C8.38 23.1 7.96 22.68 7.96 22.16L7.96 19.57C7.96 19.32 7.86 19.08 7.68 18.91C7.51 18.73 7.27 18.63 7.02 18.63C6.77 18.63 6.53 18.73 6.36 18.91C6.18 19.08 6.08 19.32 6.08 19.57L6.08 22.16C6.08 23.71 7.34 24.97 8.9 24.97L21.98 24.97C23.53 24.97 24.79 23.71 24.79 22.16L24.79 9.08C24.79 7.52 23.53 6.26 21.98 6.26Z" fill="#09DDFA" fill-opacity="1.000000" fill-rule="nonzero"/>
</svg>
