<svg width="12.000000" height="13.000000" viewBox="0 0 12 13" fill="none" xmlns="http://www.w3.org/2000/svg" xmlns:xlink="http://www.w3.org/1999/xlink">
	<path id="Vector" d="M11.35 5.02C11.14 4.99 10.93 4.98 10.72 4.98C9.09 4.98 7.98 5.76 7.54 6.13L6.91 6.66C6.28 7.19 5.47 7.48 4.64 7.48C4.15 7.48 3.67 7.38 3.22 7.19C2.49 6.87 2.02 6.15 2.02 5.35C2.02 4.77 2.3 4.24 2.45 4C2.49 3.93 2.52 3.86 2.56 3.79C3.46 3.76 4.31 3.32 4.86 2.59C4.89 2.54 4.91 2.49 4.9 2.43C4.9 2.37 4.87 2.31 4.83 2.27C4.22 1.7 3.39 1.41 2.55 1.47C2.46 1.48 2.38 1.43 2.33 1.36C1.91 0.67 1.24 0.18 0.45 0C0.33 -0.03 0.21 0.04 0.17 0.16C-0.28 1.39 0.19 2.69 1.02 3.4C0.44 4.23 0.13 5.21 0.13 6.23C0.13 7.54 0.65 8.78 1.59 9.73C2.54 10.68 3.8 11.21 5.14 11.21L5.86 11.21C5.91 11.4 5.98 11.58 6.07 11.75C6.24 12.07 6.66 12.08 6.86 11.84C7.06 11.62 7.22 11.36 7.33 11.08C8.31 10.87 9.01 10.45 9.33 10.24C9.44 10.16 9.47 10.02 9.4 9.9C9.34 9.81 9.2 9.75 9.07 9.83C8.58 10.16 8.04 10.4 7.48 10.55C7.56 10.11 7.53 9.66 7.39 9.25C7.36 9.15 7.38 9.05 7.46 8.99C7.79 8.69 8.08 8.36 8.31 7.99C8.73 7.35 9.37 6.89 10.11 6.69C10.52 6.58 10.95 6.53 11.37 6.54C11.21 7.21 10.93 7.84 10.54 8.4C10.47 8.51 10.49 8.66 10.6 8.73C10.74 8.83 10.88 8.75 10.94 8.67C11.76 7.5 11.93 6.31 11.97 5.79C12 5.49 11.8 5.08 11.35 5.02ZM5.78 10.73L5.14 10.73C4.2 10.73 3.3 10.44 2.54 9.9C3.7 10.42 5 10.25 5.84 9.95C5.78 10.2 5.76 10.47 5.78 10.73ZM9.99 6.23C9.13 6.45 8.39 6.98 7.91 7.72C7.89 7.76 7.87 7.79 7.84 7.83L7.73 7.75C7.62 7.67 7.47 7.69 7.4 7.8C7.32 7.91 7.34 8.06 7.45 8.13L7.55 8.21C7.42 8.36 7.28 8.5 7.14 8.63C6.92 8.82 6.84 9.13 6.93 9.4C7.18 10.11 7.01 10.95 6.5 11.53C6.23 11.01 6.18 10.39 6.37 9.83C6.49 9.51 6.46 9.15 6.32 8.84C6.26 8.72 6.12 8.67 6 8.73C5.88 8.79 5.83 8.93 5.88 9.05C5.93 9.16 5.96 9.27 5.96 9.38C5.36 9.65 4.7 9.78 4.04 9.75C2.21 9.7 0.74 8.3 0.62 6.51C0.54 5.38 0.92 4.28 1.54 3.5C1.62 3.41 1.62 3.25 1.49 3.16C0.67 2.55 0.3 1.52 0.55 0.53C1.12 0.71 1.6 1.09 1.92 1.61C2.06 1.84 2.32 1.97 2.59 1.95C3.21 1.9 3.84 2.09 4.33 2.48C3.91 2.94 3.34 3.24 2.72 3.3C2.75 3.15 2.78 2.91 2.76 2.67C2.74 2.35 2.27 2.39 2.28 2.71C2.31 3.13 2.2 3.48 2.03 3.76C1.87 4.03 1.54 4.65 1.54 5.35C1.54 6.61 2.42 7.37 3.03 7.63C3.77 7.94 4.34 7.96 4.65 7.96C5.96 7.96 6.85 7.34 7.22 7.03L7.85 6.5C8.65 5.83 9.67 5.46 10.72 5.46C10.91 5.46 11.1 5.47 11.29 5.49C11.4 5.51 11.5 5.61 11.49 5.75C11.49 5.86 11.47 5.96 11.46 6.06C10.96 6.05 10.47 6.1 9.99 6.23ZM10.28 9.36C10.28 9.49 10.17 9.6 10.04 9.6C9.91 9.6 9.8 9.49 9.8 9.36C9.8 9.23 9.91 9.12 10.04 9.12C10.17 9.12 10.28 9.23 10.28 9.36Z" fill="#FFFFFF" fill-opacity="1.000000" fill-rule="nonzero"/>
</svg>
